<mxfile host="app.diagrams.net" modified="2024-07-18T22:14:30.921Z" agent="Mozilla/5.0 (Windows NT 10.0; Win64; x64) AppleWebKit/537.36 (KHTML, like Gecko) Chrome/122.0.0.0 Safari/537.36" etag="Z2Vtt2eCt2yc-fmOXlgh" version="24.6.5" type="device">
  <diagram name="Page-1" id="VAwk4ibvBUv9RD7w82gL">
    <mxGraphModel dx="2350" dy="796" grid="1" gridSize="10" guides="1" tooltips="1" connect="1" arrows="1" fold="1" page="1" pageScale="1" pageWidth="850" pageHeight="1100" math="0" shadow="0">
      <root>
        <mxCell id="0" />
        <mxCell id="1" parent="0" />
        <mxCell id="wwJwSQDzjwnNdbTNENrf-1" value="&lt;font style=&quot;font-size: 20px;&quot;&gt;Plant&lt;/font&gt;" style="rounded=0;whiteSpace=wrap;html=1;" vertex="1" parent="1">
          <mxGeometry x="410" y="110" width="120" height="60" as="geometry" />
        </mxCell>
        <mxCell id="wwJwSQDzjwnNdbTNENrf-176" style="edgeStyle=orthogonalEdgeStyle;rounded=0;orthogonalLoop=1;jettySize=auto;html=1;exitX=0.5;exitY=1;exitDx=0;exitDy=0;entryX=0.5;entryY=0;entryDx=0;entryDy=0;" edge="1" parent="1" source="wwJwSQDzjwnNdbTNENrf-2" target="wwJwSQDzjwnNdbTNENrf-104">
          <mxGeometry relative="1" as="geometry" />
        </mxCell>
        <mxCell id="wwJwSQDzjwnNdbTNENrf-2" value="Stem" style="rounded=0;whiteSpace=wrap;html=1;" vertex="1" parent="1">
          <mxGeometry y="200" width="70" height="40" as="geometry" />
        </mxCell>
        <mxCell id="wwJwSQDzjwnNdbTNENrf-3" value="Leaf" style="rounded=0;whiteSpace=wrap;html=1;" vertex="1" parent="1">
          <mxGeometry x="80" y="200" width="80" height="40" as="geometry" />
        </mxCell>
        <mxCell id="wwJwSQDzjwnNdbTNENrf-4" value="&lt;div&gt;&lt;br&gt;&lt;/div&gt;Root&lt;div&gt;&lt;br&gt;&lt;/div&gt;" style="rounded=0;whiteSpace=wrap;html=1;" vertex="1" parent="1">
          <mxGeometry x="-90" y="200" width="80" height="40" as="geometry" />
        </mxCell>
        <mxCell id="wwJwSQDzjwnNdbTNENrf-177" style="edgeStyle=orthogonalEdgeStyle;rounded=0;orthogonalLoop=1;jettySize=auto;html=1;exitX=0.5;exitY=1;exitDx=0;exitDy=0;entryX=0.5;entryY=0;entryDx=0;entryDy=0;" edge="1" parent="1" source="wwJwSQDzjwnNdbTNENrf-10" target="wwJwSQDzjwnNdbTNENrf-111">
          <mxGeometry relative="1" as="geometry" />
        </mxCell>
        <mxCell id="wwJwSQDzjwnNdbTNENrf-10" value="Flower" style="rounded=0;whiteSpace=wrap;html=1;" vertex="1" parent="1">
          <mxGeometry x="170" y="200" width="90" height="40" as="geometry" />
        </mxCell>
        <mxCell id="wwJwSQDzjwnNdbTNENrf-178" style="edgeStyle=orthogonalEdgeStyle;rounded=0;orthogonalLoop=1;jettySize=auto;html=1;exitX=0.5;exitY=1;exitDx=0;exitDy=0;entryX=0.5;entryY=0;entryDx=0;entryDy=0;" edge="1" parent="1" source="wwJwSQDzjwnNdbTNENrf-11" target="wwJwSQDzjwnNdbTNENrf-114">
          <mxGeometry relative="1" as="geometry" />
        </mxCell>
        <mxCell id="wwJwSQDzjwnNdbTNENrf-11" value="Fruit&amp;nbsp;" style="rounded=0;whiteSpace=wrap;html=1;" vertex="1" parent="1">
          <mxGeometry x="270" y="200" width="90" height="40" as="geometry" />
        </mxCell>
        <mxCell id="wwJwSQDzjwnNdbTNENrf-181" style="edgeStyle=orthogonalEdgeStyle;rounded=0;orthogonalLoop=1;jettySize=auto;html=1;exitX=0.5;exitY=1;exitDx=0;exitDy=0;entryX=0.5;entryY=0;entryDx=0;entryDy=0;" edge="1" parent="1" source="wwJwSQDzjwnNdbTNENrf-12" target="wwJwSQDzjwnNdbTNENrf-117">
          <mxGeometry relative="1" as="geometry" />
        </mxCell>
        <mxCell id="wwJwSQDzjwnNdbTNENrf-12" value="Seed" style="rounded=0;whiteSpace=wrap;html=1;" vertex="1" parent="1">
          <mxGeometry x="370" y="200" width="80" height="40" as="geometry" />
        </mxCell>
        <mxCell id="wwJwSQDzjwnNdbTNENrf-172" style="edgeStyle=orthogonalEdgeStyle;rounded=0;orthogonalLoop=1;jettySize=auto;html=1;exitX=0.5;exitY=1;exitDx=0;exitDy=0;entryX=0.5;entryY=0;entryDx=0;entryDy=0;" edge="1" parent="1" source="wwJwSQDzjwnNdbTNENrf-15" target="wwJwSQDzjwnNdbTNENrf-132">
          <mxGeometry relative="1" as="geometry" />
        </mxCell>
        <mxCell id="wwJwSQDzjwnNdbTNENrf-15" value="Tree" style="rounded=0;whiteSpace=wrap;html=1;" vertex="1" parent="1">
          <mxGeometry x="650" y="200" width="70" height="40" as="geometry" />
        </mxCell>
        <mxCell id="wwJwSQDzjwnNdbTNENrf-171" style="edgeStyle=orthogonalEdgeStyle;rounded=0;orthogonalLoop=1;jettySize=auto;html=1;exitX=0.5;exitY=1;exitDx=0;exitDy=0;entryX=0.5;entryY=0;entryDx=0;entryDy=0;" edge="1" parent="1" source="wwJwSQDzjwnNdbTNENrf-16" target="wwJwSQDzjwnNdbTNENrf-126">
          <mxGeometry relative="1" as="geometry" />
        </mxCell>
        <mxCell id="wwJwSQDzjwnNdbTNENrf-16" value="Non-flowering" style="rounded=0;whiteSpace=wrap;html=1;" vertex="1" parent="1">
          <mxGeometry x="570" y="200" width="70" height="40" as="geometry" />
        </mxCell>
        <mxCell id="wwJwSQDzjwnNdbTNENrf-170" style="edgeStyle=orthogonalEdgeStyle;rounded=0;orthogonalLoop=1;jettySize=auto;html=1;exitX=0.5;exitY=1;exitDx=0;exitDy=0;" edge="1" parent="1" source="wwJwSQDzjwnNdbTNENrf-17" target="wwJwSQDzjwnNdbTNENrf-120">
          <mxGeometry relative="1" as="geometry" />
        </mxCell>
        <mxCell id="wwJwSQDzjwnNdbTNENrf-17" value="Flowering" style="rounded=0;whiteSpace=wrap;html=1;" vertex="1" parent="1">
          <mxGeometry x="490" y="200" width="70" height="40" as="geometry" />
        </mxCell>
        <mxCell id="wwJwSQDzjwnNdbTNENrf-173" style="edgeStyle=orthogonalEdgeStyle;rounded=0;orthogonalLoop=1;jettySize=auto;html=1;exitX=0.5;exitY=1;exitDx=0;exitDy=0;entryX=0.5;entryY=0;entryDx=0;entryDy=0;" edge="1" parent="1" source="wwJwSQDzjwnNdbTNENrf-19" target="wwJwSQDzjwnNdbTNENrf-139">
          <mxGeometry relative="1" as="geometry" />
        </mxCell>
        <mxCell id="wwJwSQDzjwnNdbTNENrf-19" value="Shrub" style="rounded=0;whiteSpace=wrap;html=1;" vertex="1" parent="1">
          <mxGeometry x="740" y="200" width="70" height="40" as="geometry" />
        </mxCell>
        <mxCell id="wwJwSQDzjwnNdbTNENrf-174" style="edgeStyle=orthogonalEdgeStyle;rounded=0;orthogonalLoop=1;jettySize=auto;html=1;exitX=0.5;exitY=1;exitDx=0;exitDy=0;entryX=0.5;entryY=0;entryDx=0;entryDy=0;" edge="1" parent="1" source="wwJwSQDzjwnNdbTNENrf-20" target="wwJwSQDzjwnNdbTNENrf-147">
          <mxGeometry relative="1" as="geometry" />
        </mxCell>
        <mxCell id="wwJwSQDzjwnNdbTNENrf-20" value="Herb" style="rounded=0;whiteSpace=wrap;html=1;" vertex="1" parent="1">
          <mxGeometry x="830" y="200" width="70" height="40" as="geometry" />
        </mxCell>
        <mxCell id="wwJwSQDzjwnNdbTNENrf-175" style="edgeStyle=orthogonalEdgeStyle;rounded=0;orthogonalLoop=1;jettySize=auto;html=1;exitX=0.5;exitY=1;exitDx=0;exitDy=0;entryX=0.5;entryY=0;entryDx=0;entryDy=0;" edge="1" parent="1" source="wwJwSQDzjwnNdbTNENrf-21" target="wwJwSQDzjwnNdbTNENrf-150">
          <mxGeometry relative="1" as="geometry" />
        </mxCell>
        <mxCell id="wwJwSQDzjwnNdbTNENrf-21" value="Grass" style="rounded=0;whiteSpace=wrap;html=1;" vertex="1" parent="1">
          <mxGeometry x="920" y="200" width="70" height="40" as="geometry" />
        </mxCell>
        <mxCell id="wwJwSQDzjwnNdbTNENrf-26" value="" style="endArrow=none;html=1;rounded=0;" edge="1" parent="1">
          <mxGeometry width="50" height="50" relative="1" as="geometry">
            <mxPoint x="-40" y="140" as="sourcePoint" />
            <mxPoint x="410" y="140" as="targetPoint" />
          </mxGeometry>
        </mxCell>
        <mxCell id="wwJwSQDzjwnNdbTNENrf-28" value="" style="endArrow=classic;html=1;rounded=0;" edge="1" parent="1">
          <mxGeometry width="50" height="50" relative="1" as="geometry">
            <mxPoint x="-40" y="140" as="sourcePoint" />
            <mxPoint x="-40" y="190" as="targetPoint" />
          </mxGeometry>
        </mxCell>
        <mxCell id="wwJwSQDzjwnNdbTNENrf-29" value="" style="endArrow=classic;html=1;rounded=0;" edge="1" parent="1">
          <mxGeometry width="50" height="50" relative="1" as="geometry">
            <mxPoint x="30" y="140" as="sourcePoint" />
            <mxPoint x="30" y="190" as="targetPoint" />
          </mxGeometry>
        </mxCell>
        <mxCell id="wwJwSQDzjwnNdbTNENrf-30" value="" style="endArrow=classic;html=1;rounded=0;" edge="1" parent="1">
          <mxGeometry width="50" height="50" relative="1" as="geometry">
            <mxPoint x="120" y="140" as="sourcePoint" />
            <mxPoint x="120" y="190" as="targetPoint" />
          </mxGeometry>
        </mxCell>
        <mxCell id="wwJwSQDzjwnNdbTNENrf-31" value="" style="endArrow=classic;html=1;rounded=0;entryX=0.5;entryY=0;entryDx=0;entryDy=0;" edge="1" parent="1" target="wwJwSQDzjwnNdbTNENrf-10">
          <mxGeometry width="50" height="50" relative="1" as="geometry">
            <mxPoint x="215" y="140" as="sourcePoint" />
            <mxPoint x="260" y="90" as="targetPoint" />
          </mxGeometry>
        </mxCell>
        <mxCell id="wwJwSQDzjwnNdbTNENrf-32" value="" style="endArrow=classic;html=1;rounded=0;" edge="1" parent="1">
          <mxGeometry width="50" height="50" relative="1" as="geometry">
            <mxPoint x="310" y="140" as="sourcePoint" />
            <mxPoint x="310" y="190" as="targetPoint" />
          </mxGeometry>
        </mxCell>
        <mxCell id="wwJwSQDzjwnNdbTNENrf-33" value="" style="endArrow=classic;html=1;rounded=0;entryX=0.145;entryY=-0.075;entryDx=0;entryDy=0;entryPerimeter=0;" edge="1" parent="1" target="wwJwSQDzjwnNdbTNENrf-12">
          <mxGeometry width="50" height="50" relative="1" as="geometry">
            <mxPoint x="380" y="140" as="sourcePoint" />
            <mxPoint x="430" y="90" as="targetPoint" />
          </mxGeometry>
        </mxCell>
        <mxCell id="wwJwSQDzjwnNdbTNENrf-34" value="&lt;font style=&quot;font-size: 15px;&quot;&gt;&quot;Has a&quot;&lt;/font&gt;" style="text;html=1;align=center;verticalAlign=middle;resizable=0;points=[];autosize=1;strokeColor=none;fillColor=none;" vertex="1" parent="1">
          <mxGeometry x="130" y="100" width="70" height="30" as="geometry" />
        </mxCell>
        <mxCell id="wwJwSQDzjwnNdbTNENrf-109" value="" style="edgeStyle=orthogonalEdgeStyle;rounded=0;orthogonalLoop=1;jettySize=auto;html=1;" edge="1" parent="1" source="wwJwSQDzjwnNdbTNENrf-62" target="wwJwSQDzjwnNdbTNENrf-63">
          <mxGeometry relative="1" as="geometry" />
        </mxCell>
        <mxCell id="wwJwSQDzjwnNdbTNENrf-62" value="Taproot" style="rounded=0;whiteSpace=wrap;html=1;" vertex="1" parent="1">
          <mxGeometry x="-90" y="270" width="70" height="30" as="geometry" />
        </mxCell>
        <mxCell id="wwJwSQDzjwnNdbTNENrf-63" value="Lateral&lt;div&gt;root&lt;/div&gt;" style="rounded=0;whiteSpace=wrap;html=1;" vertex="1" parent="1">
          <mxGeometry x="-90" y="330" width="70" height="30" as="geometry" />
        </mxCell>
        <mxCell id="wwJwSQDzjwnNdbTNENrf-104" value="Node" style="rounded=0;whiteSpace=wrap;html=1;" vertex="1" parent="1">
          <mxGeometry y="270" width="70" height="30" as="geometry" />
        </mxCell>
        <mxCell id="wwJwSQDzjwnNdbTNENrf-105" value="Internode" style="rounded=0;whiteSpace=wrap;html=1;" vertex="1" parent="1">
          <mxGeometry y="330" width="70" height="30" as="geometry" />
        </mxCell>
        <mxCell id="wwJwSQDzjwnNdbTNENrf-106" value="Blade" style="rounded=0;whiteSpace=wrap;html=1;" vertex="1" parent="1">
          <mxGeometry x="85" y="270" width="70" height="30" as="geometry" />
        </mxCell>
        <mxCell id="wwJwSQDzjwnNdbTNENrf-107" value="Petiole" style="rounded=0;whiteSpace=wrap;html=1;" vertex="1" parent="1">
          <mxGeometry x="85" y="330" width="70" height="30" as="geometry" />
        </mxCell>
        <mxCell id="wwJwSQDzjwnNdbTNENrf-108" value="" style="endArrow=classic;html=1;rounded=0;" edge="1" parent="1">
          <mxGeometry width="50" height="50" relative="1" as="geometry">
            <mxPoint x="-50" y="240" as="sourcePoint" />
            <mxPoint x="-50" y="270" as="targetPoint" />
          </mxGeometry>
        </mxCell>
        <mxCell id="wwJwSQDzjwnNdbTNENrf-110" value="" style="edgeStyle=orthogonalEdgeStyle;rounded=0;orthogonalLoop=1;jettySize=auto;html=1;" edge="1" parent="1" source="wwJwSQDzjwnNdbTNENrf-111" target="wwJwSQDzjwnNdbTNENrf-112">
          <mxGeometry relative="1" as="geometry" />
        </mxCell>
        <mxCell id="wwJwSQDzjwnNdbTNENrf-111" value="Petal" style="rounded=0;whiteSpace=wrap;html=1;" vertex="1" parent="1">
          <mxGeometry x="180" y="270" width="70" height="30" as="geometry" />
        </mxCell>
        <mxCell id="wwJwSQDzjwnNdbTNENrf-112" value="Stamen" style="rounded=0;whiteSpace=wrap;html=1;" vertex="1" parent="1">
          <mxGeometry x="180" y="330" width="70" height="30" as="geometry" />
        </mxCell>
        <mxCell id="wwJwSQDzjwnNdbTNENrf-113" value="" style="edgeStyle=orthogonalEdgeStyle;rounded=0;orthogonalLoop=1;jettySize=auto;html=1;" edge="1" parent="1" source="wwJwSQDzjwnNdbTNENrf-114" target="wwJwSQDzjwnNdbTNENrf-115">
          <mxGeometry relative="1" as="geometry" />
        </mxCell>
        <mxCell id="wwJwSQDzjwnNdbTNENrf-114" value="Pericarp" style="rounded=0;whiteSpace=wrap;html=1;" vertex="1" parent="1">
          <mxGeometry x="280" y="270" width="70" height="30" as="geometry" />
        </mxCell>
        <mxCell id="wwJwSQDzjwnNdbTNENrf-115" value="Seed" style="rounded=0;whiteSpace=wrap;html=1;" vertex="1" parent="1">
          <mxGeometry x="280" y="330" width="70" height="30" as="geometry" />
        </mxCell>
        <mxCell id="wwJwSQDzjwnNdbTNENrf-116" value="" style="edgeStyle=orthogonalEdgeStyle;rounded=0;orthogonalLoop=1;jettySize=auto;html=1;" edge="1" parent="1" source="wwJwSQDzjwnNdbTNENrf-117" target="wwJwSQDzjwnNdbTNENrf-118">
          <mxGeometry relative="1" as="geometry" />
        </mxCell>
        <mxCell id="wwJwSQDzjwnNdbTNENrf-117" value="Embryo" style="rounded=0;whiteSpace=wrap;html=1;" vertex="1" parent="1">
          <mxGeometry x="370" y="270" width="70" height="30" as="geometry" />
        </mxCell>
        <mxCell id="wwJwSQDzjwnNdbTNENrf-118" value="Seed Coat" style="rounded=0;whiteSpace=wrap;html=1;" vertex="1" parent="1">
          <mxGeometry x="370" y="330" width="70" height="30" as="geometry" />
        </mxCell>
        <mxCell id="wwJwSQDzjwnNdbTNENrf-119" value="" style="edgeStyle=orthogonalEdgeStyle;rounded=0;orthogonalLoop=1;jettySize=auto;html=1;" edge="1" parent="1" source="wwJwSQDzjwnNdbTNENrf-120" target="wwJwSQDzjwnNdbTNENrf-121">
          <mxGeometry relative="1" as="geometry" />
        </mxCell>
        <mxCell id="wwJwSQDzjwnNdbTNENrf-120" value="Annual" style="rounded=0;whiteSpace=wrap;html=1;" vertex="1" parent="1">
          <mxGeometry x="490" y="270" width="70" height="30" as="geometry" />
        </mxCell>
        <mxCell id="wwJwSQDzjwnNdbTNENrf-121" value="Perennial" style="rounded=0;whiteSpace=wrap;html=1;" vertex="1" parent="1">
          <mxGeometry x="490" y="330" width="70" height="30" as="geometry" />
        </mxCell>
        <mxCell id="wwJwSQDzjwnNdbTNENrf-125" value="" style="edgeStyle=orthogonalEdgeStyle;rounded=0;orthogonalLoop=1;jettySize=auto;html=1;" edge="1" parent="1" source="wwJwSQDzjwnNdbTNENrf-126" target="wwJwSQDzjwnNdbTNENrf-127">
          <mxGeometry relative="1" as="geometry" />
        </mxCell>
        <mxCell id="wwJwSQDzjwnNdbTNENrf-126" value="Moss" style="rounded=0;whiteSpace=wrap;html=1;" vertex="1" parent="1">
          <mxGeometry x="580" y="270" width="70" height="30" as="geometry" />
        </mxCell>
        <mxCell id="wwJwSQDzjwnNdbTNENrf-127" value="Fern" style="rounded=0;whiteSpace=wrap;html=1;" vertex="1" parent="1">
          <mxGeometry x="580" y="330" width="70" height="30" as="geometry" />
        </mxCell>
        <mxCell id="wwJwSQDzjwnNdbTNENrf-131" value="" style="edgeStyle=orthogonalEdgeStyle;rounded=0;orthogonalLoop=1;jettySize=auto;html=1;" edge="1" parent="1" source="wwJwSQDzjwnNdbTNENrf-132" target="wwJwSQDzjwnNdbTNENrf-133">
          <mxGeometry relative="1" as="geometry" />
        </mxCell>
        <mxCell id="wwJwSQDzjwnNdbTNENrf-132" value="Deciduous" style="rounded=0;whiteSpace=wrap;html=1;" vertex="1" parent="1">
          <mxGeometry x="660" y="270" width="70" height="30" as="geometry" />
        </mxCell>
        <mxCell id="wwJwSQDzjwnNdbTNENrf-133" value="Coniferous" style="rounded=0;whiteSpace=wrap;html=1;" vertex="1" parent="1">
          <mxGeometry x="660" y="330" width="70" height="30" as="geometry" />
        </mxCell>
        <mxCell id="wwJwSQDzjwnNdbTNENrf-138" value="" style="edgeStyle=orthogonalEdgeStyle;rounded=0;orthogonalLoop=1;jettySize=auto;html=1;" edge="1" parent="1" source="wwJwSQDzjwnNdbTNENrf-139" target="wwJwSQDzjwnNdbTNENrf-140">
          <mxGeometry relative="1" as="geometry" />
        </mxCell>
        <mxCell id="wwJwSQDzjwnNdbTNENrf-139" value="Evergreen" style="rounded=0;whiteSpace=wrap;html=1;" vertex="1" parent="1">
          <mxGeometry x="740" y="270" width="70" height="30" as="geometry" />
        </mxCell>
        <mxCell id="wwJwSQDzjwnNdbTNENrf-140" value="Deciduous" style="rounded=0;whiteSpace=wrap;html=1;" vertex="1" parent="1">
          <mxGeometry x="740" y="330" width="70" height="30" as="geometry" />
        </mxCell>
        <mxCell id="wwJwSQDzjwnNdbTNENrf-146" value="" style="edgeStyle=orthogonalEdgeStyle;rounded=0;orthogonalLoop=1;jettySize=auto;html=1;" edge="1" parent="1" source="wwJwSQDzjwnNdbTNENrf-147" target="wwJwSQDzjwnNdbTNENrf-148">
          <mxGeometry relative="1" as="geometry" />
        </mxCell>
        <mxCell id="wwJwSQDzjwnNdbTNENrf-147" value="Culinary" style="rounded=0;whiteSpace=wrap;html=1;" vertex="1" parent="1">
          <mxGeometry x="830" y="270" width="70" height="30" as="geometry" />
        </mxCell>
        <mxCell id="wwJwSQDzjwnNdbTNENrf-148" value="Medicinal" style="rounded=0;whiteSpace=wrap;html=1;" vertex="1" parent="1">
          <mxGeometry x="830" y="330" width="70" height="30" as="geometry" />
        </mxCell>
        <mxCell id="wwJwSQDzjwnNdbTNENrf-149" value="" style="edgeStyle=orthogonalEdgeStyle;rounded=0;orthogonalLoop=1;jettySize=auto;html=1;" edge="1" parent="1" source="wwJwSQDzjwnNdbTNENrf-150" target="wwJwSQDzjwnNdbTNENrf-151">
          <mxGeometry relative="1" as="geometry" />
        </mxCell>
        <mxCell id="wwJwSQDzjwnNdbTNENrf-150" value="Lawn" style="rounded=0;whiteSpace=wrap;html=1;" vertex="1" parent="1">
          <mxGeometry x="920" y="270" width="70" height="30" as="geometry" />
        </mxCell>
        <mxCell id="wwJwSQDzjwnNdbTNENrf-151" value="Wild" style="rounded=0;whiteSpace=wrap;html=1;" vertex="1" parent="1">
          <mxGeometry x="920" y="330" width="70" height="30" as="geometry" />
        </mxCell>
        <mxCell id="wwJwSQDzjwnNdbTNENrf-153" value="" style="endArrow=none;html=1;rounded=0;" edge="1" parent="1">
          <mxGeometry width="50" height="50" relative="1" as="geometry">
            <mxPoint x="530" y="140" as="sourcePoint" />
            <mxPoint x="960" y="140" as="targetPoint" />
          </mxGeometry>
        </mxCell>
        <mxCell id="wwJwSQDzjwnNdbTNENrf-154" value="" style="endArrow=classic;html=1;rounded=0;" edge="1" parent="1">
          <mxGeometry width="50" height="50" relative="1" as="geometry">
            <mxPoint x="540" y="140" as="sourcePoint" />
            <mxPoint x="540" y="200" as="targetPoint" />
          </mxGeometry>
        </mxCell>
        <mxCell id="wwJwSQDzjwnNdbTNENrf-155" value="" style="endArrow=classic;html=1;rounded=0;" edge="1" parent="1">
          <mxGeometry width="50" height="50" relative="1" as="geometry">
            <mxPoint x="610" y="140" as="sourcePoint" />
            <mxPoint x="610" y="200" as="targetPoint" />
          </mxGeometry>
        </mxCell>
        <mxCell id="wwJwSQDzjwnNdbTNENrf-159" value="" style="endArrow=classic;html=1;rounded=0;" edge="1" parent="1">
          <mxGeometry width="50" height="50" relative="1" as="geometry">
            <mxPoint x="680" y="140" as="sourcePoint" />
            <mxPoint x="680" y="190" as="targetPoint" />
          </mxGeometry>
        </mxCell>
        <mxCell id="wwJwSQDzjwnNdbTNENrf-160" value="" style="endArrow=classic;html=1;rounded=0;entryX=0.5;entryY=0;entryDx=0;entryDy=0;" edge="1" parent="1" target="wwJwSQDzjwnNdbTNENrf-19">
          <mxGeometry width="50" height="50" relative="1" as="geometry">
            <mxPoint x="775" y="140" as="sourcePoint" />
            <mxPoint x="820" y="90" as="targetPoint" />
          </mxGeometry>
        </mxCell>
        <mxCell id="wwJwSQDzjwnNdbTNENrf-161" value="" style="endArrow=classic;html=1;rounded=0;entryX=0.5;entryY=0;entryDx=0;entryDy=0;" edge="1" parent="1" target="wwJwSQDzjwnNdbTNENrf-20">
          <mxGeometry width="50" height="50" relative="1" as="geometry">
            <mxPoint x="865" y="140" as="sourcePoint" />
            <mxPoint x="910" y="90" as="targetPoint" />
          </mxGeometry>
        </mxCell>
        <mxCell id="wwJwSQDzjwnNdbTNENrf-162" value="" style="endArrow=classic;html=1;rounded=0;" edge="1" parent="1">
          <mxGeometry width="50" height="50" relative="1" as="geometry">
            <mxPoint x="960" y="139" as="sourcePoint" />
            <mxPoint x="960" y="200" as="targetPoint" />
          </mxGeometry>
        </mxCell>
        <mxCell id="wwJwSQDzjwnNdbTNENrf-164" value="" style="endArrow=classic;html=1;rounded=0;entryX=0.5;entryY=0;entryDx=0;entryDy=0;" edge="1" parent="1" target="wwJwSQDzjwnNdbTNENrf-106">
          <mxGeometry width="50" height="50" relative="1" as="geometry">
            <mxPoint x="120" y="240" as="sourcePoint" />
            <mxPoint x="170" y="190" as="targetPoint" />
          </mxGeometry>
        </mxCell>
        <mxCell id="wwJwSQDzjwnNdbTNENrf-182" value="&lt;font style=&quot;font-size: 15px;&quot;&gt;&quot;Is a&quot;&lt;/font&gt;" style="text;html=1;align=center;verticalAlign=middle;resizable=0;points=[];autosize=1;strokeColor=none;fillColor=none;" vertex="1" parent="1">
          <mxGeometry x="690" y="100" width="60" height="30" as="geometry" />
        </mxCell>
      </root>
    </mxGraphModel>
  </diagram>
</mxfile>
